HIERARCHY
ROOT Hips
{
	OFFSET 0.000000 0.000000 0.000000
	CHANNELS 6 Xposition Yposition Zposition Zrotation Yrotation Xrotation 
	JOINT LHipJoint
	{
		OFFSET 0.000000 0.000000 0.000000
		CHANNELS 3 Zrotation Yrotation Xrotation
		JOINT LeftUpLeg
		{
			OFFSET 1.363060 -1.794630 0.839290
			CHANNELS 3 Zrotation Yrotation Xrotation
			JOINT LeftLeg
			{
				OFFSET 2.448110 -6.726130 0.000000
				CHANNELS 3 Zrotation Yrotation Xrotation
				JOINT LeftFoot
				{
					OFFSET 2.562200 -7.039590 0.000000
					CHANNELS 3 Zrotation Yrotation Xrotation
					JOINT LeftToeBase
					{
						OFFSET 0.157640 -0.433110 2.322550
						CHANNELS 3 Zrotation Yrotation Xrotation
						End Site
						{
							OFFSET 0.000000 0.000000 0.000000
						}
					}
				}
			}
		}
	}
	JOINT RHipJoint
	{
		OFFSET 0.000000 0.000000 0.000000
		CHANNELS 3 Zrotation Yrotation Xrotation
		JOINT RightUpLeg
		{
			OFFSET -1.305520 -1.794630 0.839290
			CHANNELS 3 Zrotation Yrotation Xrotation
			JOINT RightLeg
			{
				OFFSET -2.542530 -6.985550 0.000000
				CHANNELS 3 Zrotation Yrotation Xrotation
				JOINT RightFoot
				{
					OFFSET -2.568260 -7.056230 0.000000
					CHANNELS 3 Zrotation Yrotation Xrotation
					JOINT RightToeBase
					{
						OFFSET -0.164730 -0.452590 2.363150
						CHANNELS 3 Zrotation Yrotation Xrotation
						End Site
						{
							OFFSET 0.000000 0.000000 0.000000
						}
					}
				}
			}
		}
	}
	JOINT LowerBack
	{
		OFFSET 0.000000 0.000000 0.000000
		CHANNELS 3 Zrotation Yrotation Xrotation
		JOINT Spine
		{
			OFFSET 0.028270 2.035590 -0.193380
			CHANNELS 3 Zrotation Yrotation Xrotation
			JOINT Spine1
			{
				OFFSET 0.056720 2.048850 -0.042750
				CHANNELS 3 Zrotation Yrotation Xrotation
				JOINT Neck
				{
					OFFSET 0.000000 0.000000 0.000000
					CHANNELS 3 Zrotation Yrotation Xrotation
					JOINT Neck1
					{
						OFFSET -0.054170 1.746240 0.172020
						CHANNELS 3 Zrotation Yrotation Xrotation
						JOINT Head
						{
							OFFSET 0.104070 1.761360 -0.123970
							CHANNELS 3 Zrotation Yrotation Xrotation
							End Site
							{
								OFFSET 0.000000 0.000000 0.000000
							}
						}
					}
				}
				JOINT LeftShoulder
				{
					OFFSET 0.000000 0.000000 0.000000
					CHANNELS 3 Zrotation Yrotation Xrotation
					JOINT LeftArm
					{
						OFFSET 3.362410 1.200890 -0.311210
						CHANNELS 3 Zrotation Yrotation Xrotation
						JOINT LeftForeArm
						{
							OFFSET 4.983000 -0.000000 -0.000000
							CHANNELS 3 Zrotation Yrotation Xrotation
							JOINT LeftHand
							{
								OFFSET 3.483560 -0.000000 -0.000000
								CHANNELS 3 Zrotation Yrotation Xrotation
								JOINT LeftFingerBase
								{
									OFFSET 0.000000 0.000000 0.000000
									CHANNELS 3 Zrotation Yrotation Xrotation
									JOINT LeftHandIndex1
									{
										OFFSET 0.715260 -0.000000 -0.000000
										CHANNELS 3 Zrotation Yrotation Xrotation
										End Site
										{
											OFFSET 0.000000 0.000000 0.000000
										}
									}
								}
								JOINT LThumb
								{
									OFFSET 0.000000 0.000000 0.000000
									CHANNELS 3 Zrotation Yrotation Xrotation
									End Site
									{
										OFFSET 0.000000 0.000000 0.000000
									}
								}
							}
						}
					}
				}
				JOINT RightShoulder
				{
					OFFSET 0.000000 0.000000 0.000000
					CHANNELS 3 Zrotation Yrotation Xrotation
					JOINT RightArm
					{
						OFFSET -3.136600 1.374050 -0.404650
						CHANNELS 3 Zrotation Yrotation Xrotation
						JOINT RightForeArm
						{
							OFFSET -5.241900 -0.000000 -0.000000
							CHANNELS 3 Zrotation Yrotation Xrotation
							JOINT RightHand
							{
								OFFSET -3.444170 -0.000000 -0.000000
								CHANNELS 3 Zrotation Yrotation Xrotation
								JOINT RightFingerBase
								{
									OFFSET 0.000000 0.000000 0.000000
									CHANNELS 3 Zrotation Yrotation Xrotation
									JOINT RightHandIndex1
									{
										OFFSET -0.622530 -0.000000 -0.000000
										CHANNELS 3 Zrotation Yrotation Xrotation
										End Site
										{
											OFFSET 0.000000 0.000000 0.000000
										}
									}
								}
								JOINT RThumb
								{
									OFFSET 0.000000 0.000000 0.000000
									CHANNELS 3 Zrotation Yrotation Xrotation
									End Site
									{
										OFFSET 0.000000 0.000000 0.000000
									}
								}
							}
						}
					}
				}
			}
		}
	}
}
MOTION
Frames: 7
Frame Time: 0.008333
10.093245 17.841780 48.995244 -177.631725 -16.817368 179.836187 -0.877586 3.745499 1.157937 -14.963421 -28.065171 -1.802170 -1.813345 9.150506 25.872677 -3.590405 11.865380 -3.437086 5.500900 -13.926600 -42.944100 -2.795591 -3.675618 1.112715 26.298517 14.990088 2.176260 2.289377 -7.465922 23.983723 8.552872 -29.011926 -18.100466 -0.530500 4.667300 -12.962100 5.953713 1.420745 5.923850 3.691061 2.634342 1.457199 -5.854435 0.567426 -11.543381 2.889232 10.812810 -13.607415 8.511654 13.864732 22.628908 0.945700 8.022100 8.176800 -2.238019 -9.377676 1.198879 -88.547693 8.096070 39.767205 21.838150 -21.439168 -5.765536 1.674568 1.177648 16.565760 11.186428 -33.250977 -5.755800 -7.125000 0.000000 0.000000 -12.510500 -4.730600 13.821700 0.338389 12.076196 2.941203 87.305291 -11.670317 46.303167 -20.627301 23.711342 -6.028338 1.206310 0.603734 9.797671 -6.846311 -54.525672 6.514600 7.125000 0.000000 0.000000 76.233100 -74.695900 -60.367000 
10.058877 17.825954 48.939381 -177.951417 -15.947858 179.490895 -0.925552 3.945680 1.277321 -15.975809 -28.818917 -0.376104 -1.893140 9.079174 25.757813 -3.996185 12.853141 -4.845785 4.842300 -13.204000 -40.137000 -2.810463 -3.780363 1.211783 25.898154 15.164449 2.544692 2.233131 -7.537229 24.387841 7.948212 -27.536528 -18.690082 -0.406300 4.092300 -11.336500 5.862348 1.736792 5.123601 3.565250 2.967986 2.174062 -5.851814 0.775482 -10.896750 2.908986 10.817331 -13.353158 8.319834 13.895373 22.369084 0.851500 8.007000 8.095200 -2.206808 -9.447544 1.167136 -88.728103 8.188132 39.037447 22.189586 -21.831634 -5.921591 1.613903 1.212739 16.276406 12.322123 -33.422313 -6.489700 -7.125000 0.000000 0.000000 -11.882800 -5.100500 13.167600 0.302543 12.051400 2.912617 87.232867 -11.757443 46.296761 -20.805987 23.934669 -6.146259 1.183035 0.632057 9.209820 -6.185474 -55.473663 6.021800 7.125000 0.000000 0.000000 79.941500 -74.583500 -63.838400 
10.054861 17.824655 48.918831 -178.027612 -15.671620 179.575574 -0.963294 3.986666 1.265562 -16.210150 -29.243950 0.010141 -1.931615 9.039773 25.643133 -4.230673 13.411330 -5.294300 4.429400 -12.710900 -38.295700 -2.801075 -3.796443 1.235659 25.827195 15.557542 2.652995 2.276508 -7.521019 24.388560 7.643252 -26.945915 -19.496731 -0.224600 3.050400 -8.419000 5.833231 1.888974 4.704043 3.460716 3.124789 2.172761 -5.860271 0.859567 -10.629980 3.030727 10.815604 -12.946744 8.239420 13.855220 22.150915 0.762400 7.979500 7.986200 -2.188739 -9.481584 1.173276 -88.767957 8.292930 38.234439 22.411783 -22.174863 -6.087556 1.812843 1.075864 15.720541 7.291023 -34.833658 -3.503700 -7.125000 0.000000 0.000000 -14.792200 -5.593600 16.706100 0.305143 12.025873 2.901671 87.330741 -11.868441 46.294568 -20.801652 23.920245 -6.147546 1.191280 0.620849 9.451635 -6.919149 -55.546834 6.643600 7.125000 0.000000 0.000000 79.978600 -74.854600 -64.184600 
10.065372 17.830678 48.917414 -177.969870 -15.647959 179.851172 -0.993068 3.956570 1.209768 -16.002832 -29.426341 -0.088911 -1.972447 8.966547 25.403083 -4.328312 13.611356 -5.115884 4.276700 -12.519700 -37.596300 -2.772478 -3.763204 1.216762 25.877803 15.912419 2.482780 2.325930 -7.528960 24.376290 7.387490 -26.506805 -20.259481 -0.101500 2.054300 -5.655800 5.738306 1.975073 4.505343 3.511330 3.208553 1.832881 -5.806963 0.896605 -10.574138 3.035070 10.833978 -12.431451 8.275352 13.818582 21.889397 0.708600 7.957600 7.818000 -2.172689 -9.495540 1.201125 -88.813708 8.694488 37.896981 22.839035 -22.691869 -6.303425 1.854885 1.013978 15.732112 5.667026 -35.012422 -2.504400 -7.125000 0.000000 0.000000 -15.679600 -5.496400 17.759200 0.311647 11.979619 2.909537 87.385293 -12.125910 46.496629 -20.679648 23.746556 -6.086390 1.231548 0.559734 10.466137 -10.531456 -55.305775 9.661300 7.125000 0.000000 0.000000 77.994800 -76.146000 -63.705600 
10.087339 17.848040 48.927334 -178.051213 -15.883689 -179.569158 -1.022553 3.814944 1.103902 -15.587254 -29.143274 -0.832739 -1.993744 8.913681 25.193681 -4.152470 13.170824 -4.444597 4.391800 -12.664300 -38.124500 -2.722827 -3.681343 1.172167 25.712008 16.122384 1.993155 2.396356 -7.516026 24.256349 7.145531 -26.072539 -20.977750 -0.026200 1.044500 -2.871200 5.385534 1.994641 4.392997 3.540241 3.184767 1.200932 -5.608697 0.893182 -10.655861 2.917049 10.875510 -11.976335 8.479162 13.791625 21.680458 0.730200 7.949800 7.643500 -2.159457 -9.498601 1.239939 -88.921297 9.206544 37.843770 23.440156 -23.343904 -6.550073 1.805526 0.972992 16.139257 6.010307 -34.008962 -2.668200 -7.125000 0.000000 0.000000 -15.420600 -4.535200 17.205700 0.329384 11.936931 2.935599 87.490453 -12.258973 46.142761 -20.748229 23.821786 -6.121866 1.240636 0.541692 10.352757 -13.712885 -55.508263 12.362000 7.125000 0.000000 0.000000 78.241000 -77.339200 -65.265200 
10.142376 17.890675 48.954026 -178.243629 -16.503408 -178.107692 -1.062283 3.422675 0.834207 -14.559176 -28.247813 -2.892883 -2.007113 8.867269 24.896068 -3.703622 12.101171 -2.981714 4.685200 -13.020300 -39.444500 -2.616483 -3.451334 1.040098 25.338366 16.644376 0.727719 2.532837 -7.523064 24.042714 6.647402 -25.192948 -22.392856 -0.039400 -1.280500 3.521000 4.518177 1.959496 4.065446 3.633700 3.009883 -0.322977 -5.088592 0.825340 -10.794944 2.904347 10.924318 -11.119032 8.595635 13.744803 21.425395 0.682300 7.927200 7.404000 -2.137677 -9.478139 1.318041 -89.108453 10.077389 37.964723 24.729541 -24.702807 -7.096781 1.685049 0.882538 16.235899 6.387172 -31.459589 -2.743800 -7.125000 0.000000 0.000000 -15.048000 -2.011300 16.125700 0.357735 11.885225 3.008499 87.587245 -12.597543 45.746485 -20.843270 23.941031 -6.187455 1.240837 0.519619 10.753127 -17.291834 -56.248389 15.509100 7.125000 0.000000 0.000000 81.754900 -78.678500 -70.170000 
10.144029 17.890439 48.951073 -178.312747 -16.569016 -178.023513 -1.080988 3.412837 0.827159 -14.570480 -28.219029 -2.926755 -2.032620 8.828432 24.772204 -3.715738 12.126997 -2.881307 4.919300 -13.292300 -40.472700 -2.608319 -3.446644 1.042284 25.245841 16.688338 0.683469 2.548939 -7.506415 23.999285 6.528476 -24.917870 -22.532953 -0.067300 -1.673800 4.605000 4.504047 1.978220 3.994413 3.558329 3.023177 -0.351957 -5.088309 0.835972 -10.756594 2.804401 10.861432 -11.141755 8.709509 13.640428 21.381678 0.717000 7.878000 7.370300 -2.120070 -9.487553 1.330856 -89.007071 10.189921 38.306286 24.820716 -24.771508 -7.124954 1.583379 0.955882 16.065810 8.753061 -31.171383 -4.077200 -7.125000 0.000000 0.000000 -13.671900 -2.085200 14.575700 0.355013 11.871526 3.011489 87.644908 -12.486368 45.313420 -20.916241 24.038188 -6.258208 1.229536 0.523476 11.071373 -20.327645 -57.487723 18.339400 7.125000 0.000000 0.000000 89.347600 -79.624300 -78.787300 
